<svg width="162" height="151" viewBox="0 0 162 151" fill="none" xmlns="http://www.w3.org/2000/svg">
    <g filter="url(#filter0_d_1_2860)">
        <circle cx="81" cy="71" r="29" fill="#008AA7"/>
    </g>
    <g clip-path="url(#clip0_1_2860)">
        <path fill-rule="evenodd" clip-rule="evenodd" d="M81.0033 51.0054C90.0206 51.0054 97.6394 56.9995 100.109 65.2266H94.3961C92.165 60.0299 87.0087 56.3905 81.0033 56.3905C73.096 56.3905 66.6602 62.6992 66.4364 70.566L66.3281 84.5244C63.0545 80.9647 61.0541 76.2115 61.0541 70.9895C61.0541 59.9524 69.9856 51.0051 81.0033 51.0051V51.0054ZM69.2606 70.663C69.5221 64.2792 74.9911 59.0118 81.0036 59.0118C87.0158 59.0118 91.2838 62.8517 92.5951 68.0411C95.2909 68.0411 98.0134 68.0684 100.74 68.0684C100.879 69.022 100.952 69.9973 100.952 70.9897C100.952 82.0268 92.0209 90.974 81.0033 90.974C79.7817 90.974 78.5861 90.8635 77.4254 90.6529V85.1449C78.5701 85.4345 79.7688 85.5887 81.0033 85.5887C88.1999 85.5887 94.1772 80.3633 95.3624 73.4932H92.6981C91.5489 78.9067 86.7498 82.968 81.0033 82.968C78.5036 82.968 76.1833 82.1994 74.2643 80.8855C74.2643 83.8998 74.4025 86.769 74.4025 89.8527C72.5835 89.2141 70.8849 88.3189 69.3501 87.2105V85.1274L69.2603 70.6627L69.2606 70.663ZM81.0036 64.4165C84.6276 64.4165 87.5654 67.3596 87.5654 70.99C87.5654 74.6205 84.6276 77.5635 81.0036 77.5635C77.3795 77.5635 74.4417 74.6205 74.4417 70.99C74.4417 67.3596 77.3795 64.4165 81.0036 64.4165Z" fill="white"/>
        <path d="M81.0035 74.5615C82.9723 74.5615 84.5684 72.9626 84.5684 70.9903C84.5684 69.018 82.9723 67.4191 81.0035 67.4191C79.0346 67.4191 77.4385 69.018 77.4385 70.9903C77.4385 72.9626 79.0346 74.5615 81.0035 74.5615Z" fill="#FDAE09"/>
    </g>
    <defs>
        <filter id="filter0_d_1_2860" x="0" y="0" width="162" height="162" filterUnits="userSpaceOnUse" color-interpolation-filters="sRGB">
            <feFlood flood-opacity="0" result="BackgroundImageFix"/>
            <feColorMatrix in="SourceAlpha" type="matrix" values="0 0 0 0 0 0 0 0 0 0 0 0 0 0 0 0 0 0 127 0" result="hardAlpha"/>
            <feOffset dy="10"/>
            <feGaussianBlur stdDeviation="26"/>
            <feComposite in2="hardAlpha" operator="out"/>
            <feColorMatrix type="matrix" values="0 0 0 0 0.290196 0 0 0 0 0.333333 0 0 0 0 0.407843 0 0 0 0.25 0"/>
            <feBlend mode="normal" in2="BackgroundImageFix" result="effect1_dropShadow_1_2860"/>
            <feBlend mode="normal" in="SourceGraphic" in2="effect1_dropShadow_1_2860" result="shape"/>
        </filter>
        <clipPath id="clip0_1_2860">
            <rect width="100" height="100" fill="white" transform="translate(61 51)"/>
        </clipPath>
    </defs>
</svg>
