<svg width="91" height="90" viewBox="0 0 91 90" fill="none" xmlns="http://www.w3.org/2000/svg">
    <circle opacity="0.07" cx="45.5" cy="45" r="45" fill="url(#paint0_linear_1_413)"/>
    <circle cx="45.5" cy="45" r="38" fill="url(#paint1_linear_1_413)"/>
    <g clip-path="url(#clip0_1_413)">
        <path d="M32.625 23.125C30.8965 23.125 29.5 24.5215 29.5 26.25V63.75C29.5 65.4785 30.8965 66.875 32.625 66.875H48.25C55.1543 66.875 60.75 61.2793 60.75 54.375C60.75 49.834 58.3281 45.8496 54.6953 43.6621C56.5215 41.4844 57.625 38.6816 57.625 35.625C57.625 28.7207 52.0293 23.125 45.125 23.125H32.625ZM45.125 41.875H35.75V29.375H45.125C48.5723 29.375 51.375 32.1777 51.375 35.625C51.375 39.0723 48.5723 41.875 45.125 41.875ZM35.75 48.125H48.25C51.6973 48.125 54.5 50.9277 54.5 54.375C54.5 57.8223 51.6973 60.625 48.25 60.625H35.75V48.125Z" fill="white"/>
    </g>
    <defs>
        <linearGradient id="paint0_linear_1_413" x1="45.5" y1="0" x2="45.5" y2="90" gradientUnits="userSpaceOnUse">
            <stop stop-color="#3EC9E7"/>
            <stop offset="1" stop-color="#008AA7"/>
        </linearGradient>
        <linearGradient id="paint1_linear_1_413" x1="45.5" y1="7" x2="45.5" y2="83" gradientUnits="userSpaceOnUse">
            <stop stop-color="#3EC9E7"/>
            <stop offset="1" stop-color="#008AA7"/>
        </linearGradient>
        <clipPath id="clip0_1_413">
            <rect width="31.25" height="50" fill="white" transform="translate(29.5 20)"/>
        </clipPath>
    </defs>
</svg>
